<?xml version="1.0" standalone="no"?>
<!DOCTYPE svg PUBLIC "-//W3C//DTD SVG 20010904//EN"
 "http://www.w3.org/TR/2001/REC-SVG-20010904/DTD/svg10.dtd">
<svg version="1.0" xmlns="http://www.w3.org/2000/svg"
 width="200.000000pt" height="200.000000pt" viewBox="0 0 200.000000 200.000000"
 preserveAspectRatio="xMidYMid meet">

<g transform="translate(0.000000,200.000000) scale(0.100000,-0.100000)"
fill="#000000" stroke="none">
<path d="M402 1894 c-15 -10 -22 -25 -22 -49 0 -67 -23 -65 635 -65 658 0 635
-2 635 65 0 67 23 65 -635 65 -518 0 -593 -2 -613 -16z"/>
<path d="M526 1714 c-22 -23 -26 -36 -26 -83 l0 -56 -51 -12 c-103 -25 -189
-103 -224 -204 -12 -34 -15 -124 -15 -500 0 -440 1 -460 21 -514 28 -74 100
-146 174 -174 54 -20 73 -21 605 -21 532 0 551 1 605 21 74 28 146 100 174
174 20 54 21 74 21 514 0 376 -3 466 -15 500 -35 101 -121 179 -224 204 l-51
12 0 56 c0 47 -4 60 -26 83 l-27 26 -457 0 -457 0 -27 -26z m1111 -1046 c-1
-117 -2 -24 -2 207 0 231 1 327 2 213 2 -114 2 -303 0 -420z m-1280 -6 c-1
-114 -2 -20 -2 208 0 228 1 322 2 207 2 -114 2 -300 0 -415z"/>
</g>
</svg>
